<svg width="23" height="23" viewBox="0 0 23 23" fill="none" xmlns="http://www.w3.org/2000/svg">
<g clip-path="url(#clip0_16_119)">
<path d="M0.958344 0.958313H4.79168L7.36001 13.7904C7.44764 14.2316 7.68767 14.6279 8.03807 14.91C8.38848 15.1921 8.82693 15.3419 9.27668 15.3333H18.5917C19.0414 15.3419 19.4799 15.1921 19.8303 14.91C20.1807 14.6279 20.4207 14.2316 20.5083 13.7904L22.0417 5.74998H5.75001M9.58334 20.125C9.58334 20.6543 9.15428 21.0833 8.62501 21.0833C8.09574 21.0833 7.66668 20.6543 7.66668 20.125C7.66668 19.5957 8.09574 19.1666 8.62501 19.1666C9.15428 19.1666 9.58334 19.5957 9.58334 20.125ZM20.125 20.125C20.125 20.6543 19.6959 21.0833 19.1667 21.0833C18.6374 21.0833 18.2083 20.6543 18.2083 20.125C18.2083 19.5957 18.6374 19.1666 19.1667 19.1666C19.6959 19.1666 20.125 19.5957 20.125 20.125Z" stroke="#1E1E1E" stroke-width="4" stroke-linecap="round" stroke-linejoin="round"/>
</g>
<defs>
<clipPath id="clip0_16_119">
<rect width="23" height="23" fill="white"/>
</clipPath>
</defs>
</svg>
