<svg width="93" height="24" viewBox="0 0 93 24" fill="none" xmlns="http://www.w3.org/2000/svg">
<g filter="url(#filter0_d_12_82)">
<mask id="path-1-outside-1_12_82" maskUnits="userSpaceOnUse" x="3" y="-1" width="87" height="18" fill="black">
<rect fill="white" x="3" y="-1" width="87" height="18"/>
<path d="M4.40909 12V0.363636H5.81818V6.13636H5.95455L11.1818 0.363636H13.0227L8.13636 5.61364L13.0227 12H11.3182L7.27273 6.59091L5.81818 8.22727V12H4.40909ZM17.5696 12.1818C16.7817 12.1818 16.0904 11.9943 15.4957 11.6193C14.9048 11.2443 14.4427 10.7197 14.1094 10.0455C13.7798 9.37121 13.6151 8.58333 13.6151 7.68182C13.6151 6.77273 13.7798 5.97917 14.1094 5.30114C14.4427 4.62311 14.9048 4.09659 15.4957 3.72159C16.0904 3.34659 16.7817 3.15909 17.5696 3.15909C18.3575 3.15909 19.0469 3.34659 19.6378 3.72159C20.2325 4.09659 20.6946 4.62311 21.0241 5.30114C21.3575 5.97917 21.5241 6.77273 21.5241 7.68182C21.5241 8.58333 21.3575 9.37121 21.0241 10.0455C20.6946 10.7197 20.2325 11.2443 19.6378 11.6193C19.0469 11.9943 18.3575 12.1818 17.5696 12.1818ZM17.5696 10.9773C18.1681 10.9773 18.6605 10.8239 19.0469 10.517C19.4332 10.2102 19.7192 9.80682 19.9048 9.30682C20.0904 8.80682 20.1832 8.26515 20.1832 7.68182C20.1832 7.09848 20.0904 6.55492 19.9048 6.05114C19.7192 5.54735 19.4332 5.14015 19.0469 4.82955C18.6605 4.51894 18.1681 4.36364 17.5696 4.36364C16.9711 4.36364 16.4787 4.51894 16.0923 4.82955C15.706 5.14015 15.42 5.54735 15.2344 6.05114C15.0488 6.55492 14.956 7.09848 14.956 7.68182C14.956 8.26515 15.0488 8.80682 15.2344 9.30682C15.42 9.80682 15.706 10.2102 16.0923 10.517C16.4787 10.8239 16.9711 10.9773 17.5696 10.9773ZM23.571 15.2727V3.27273H24.8665V4.65909H25.0256C25.1241 4.50758 25.2604 4.31439 25.4347 4.07955C25.6127 3.84091 25.8665 3.62879 26.196 3.44318C26.5294 3.25379 26.9801 3.15909 27.5483 3.15909C28.2831 3.15909 28.9309 3.3428 29.4915 3.71023C30.0521 4.07765 30.4896 4.59848 30.804 5.27273C31.1184 5.94697 31.2756 6.74242 31.2756 7.65909C31.2756 8.58333 31.1184 9.38447 30.804 10.0625C30.4896 10.7367 30.054 11.2595 29.4972 11.6307C28.9403 11.9981 28.2983 12.1818 27.571 12.1818C27.0104 12.1818 26.5616 12.089 26.2244 11.9034C25.8873 11.714 25.6278 11.5 25.446 11.2614C25.2642 11.0189 25.1241 10.8182 25.0256 10.6591H24.9119V15.2727H23.571ZM24.8892 7.63636C24.8892 8.29545 24.9858 8.87689 25.179 9.38068C25.3722 9.88068 25.6544 10.2727 26.0256 10.5568C26.3968 10.8371 26.8513 10.9773 27.3892 10.9773C27.9498 10.9773 28.4176 10.8295 28.7926 10.5341C29.1714 10.2348 29.4555 9.83333 29.6449 9.32955C29.8381 8.82197 29.9347 8.25758 29.9347 7.63636C29.9347 7.02273 29.84 6.4697 29.6506 5.97727C29.465 5.48106 29.1828 5.08902 28.804 4.80114C28.429 4.50947 27.9574 4.36364 27.3892 4.36364C26.8438 4.36364 26.3854 4.50189 26.0142 4.77841C25.643 5.05114 25.3627 5.43371 25.1733 5.92614C24.9839 6.41477 24.8892 6.98485 24.8892 7.63636ZM39.8665 3.27273C39.7983 2.69697 39.5218 2.25 39.0369 1.93182C38.5521 1.61364 37.9574 1.45455 37.2528 1.45455C36.7377 1.45455 36.2869 1.53788 35.9006 1.70455C35.518 1.87121 35.2188 2.10038 35.0028 2.39205C34.7907 2.68371 34.6847 3.01515 34.6847 3.38636C34.6847 3.69697 34.7585 3.96401 34.9062 4.1875C35.0578 4.4072 35.2509 4.59091 35.4858 4.73864C35.7206 4.88258 35.9669 5.00189 36.2244 5.09659C36.482 5.1875 36.7188 5.26136 36.9347 5.31818L38.1165 5.63636C38.4195 5.71591 38.7566 5.82576 39.1278 5.96591C39.5028 6.10606 39.8608 6.29735 40.2017 6.53977C40.5464 6.77841 40.8305 7.08523 41.054 7.46023C41.2775 7.83523 41.3892 8.29545 41.3892 8.84091C41.3892 9.4697 41.2244 10.0379 40.8949 10.5455C40.5691 11.053 40.0919 11.4564 39.4631 11.7557C38.8381 12.0549 38.0786 12.2045 37.1847 12.2045C36.3513 12.2045 35.6297 12.0701 35.0199 11.8011C34.4138 11.5322 33.9366 11.1572 33.5881 10.6761C33.2434 10.1951 33.0483 9.63636 33.0028 9H34.4574C34.4953 9.43939 34.643 9.80303 34.9006 10.0909C35.1619 10.375 35.4915 10.5871 35.8892 10.7273C36.2907 10.8636 36.7225 10.9318 37.1847 10.9318C37.7225 10.9318 38.2055 10.8447 38.6335 10.6705C39.0616 10.4924 39.4006 10.2462 39.6506 9.93182C39.9006 9.61364 40.0256 9.24242 40.0256 8.81818C40.0256 8.43182 39.9176 8.11742 39.7017 7.875C39.4858 7.63258 39.2017 7.43561 38.8494 7.28409C38.4972 7.13258 38.1165 7 37.7074 6.88636L36.2756 6.47727C35.3665 6.21591 34.6468 5.8428 34.1165 5.35795C33.5862 4.87311 33.321 4.23864 33.321 3.45455C33.321 2.80303 33.4972 2.23485 33.8494 1.75C34.2055 1.26136 34.6828 0.882575 35.2812 0.613636C35.8835 0.340909 36.5559 0.204545 37.2983 0.204545C38.0483 0.204545 38.715 0.339015 39.2983 0.607954C39.8816 0.873105 40.3438 1.23674 40.6847 1.69886C41.0294 2.16098 41.2112 2.68561 41.2301 3.27273H39.8665ZM43.5241 15.2727V3.27273H44.8196V4.65909H44.9787C45.0772 4.50758 45.2135 4.31439 45.3878 4.07955C45.5658 3.84091 45.8196 3.62879 46.1491 3.44318C46.4825 3.25379 46.9332 3.15909 47.5014 3.15909C48.2363 3.15909 48.884 3.3428 49.4446 3.71023C50.0052 4.07765 50.4427 4.59848 50.7571 5.27273C51.0715 5.94697 51.2287 6.74242 51.2287 7.65909C51.2287 8.58333 51.0715 9.38447 50.7571 10.0625C50.4427 10.7367 50.0071 11.2595 49.4503 11.6307C48.8935 11.9981 48.2514 12.1818 47.5241 12.1818C46.9635 12.1818 46.5147 12.089 46.1776 11.9034C45.8404 11.714 45.581 11.5 45.3991 11.2614C45.2173 11.0189 45.0772 10.8182 44.9787 10.6591H44.8651V15.2727H43.5241ZM44.8423 7.63636C44.8423 8.29545 44.9389 8.87689 45.1321 9.38068C45.3253 9.88068 45.6075 10.2727 45.9787 10.5568C46.3499 10.8371 46.8045 10.9773 47.3423 10.9773C47.9029 10.9773 48.3707 10.8295 48.7457 10.5341C49.1245 10.2348 49.4086 9.83333 49.598 9.32955C49.7912 8.82197 49.8878 8.25758 49.8878 7.63636C49.8878 7.02273 49.7931 6.4697 49.6037 5.97727C49.4181 5.48106 49.1359 5.08902 48.7571 4.80114C48.3821 4.50947 47.9105 4.36364 47.3423 4.36364C46.7969 4.36364 46.3385 4.50189 45.9673 4.77841C45.5961 5.05114 45.3158 5.43371 45.1264 5.92614C44.937 6.41477 44.8423 6.98485 44.8423 7.63636ZM56.9332 12.1818C56.0923 12.1818 55.367 11.9962 54.7571 11.625C54.151 11.25 53.6832 10.7273 53.3537 10.0568C53.0279 9.38258 52.8651 8.59848 52.8651 7.70455C52.8651 6.81061 53.0279 6.02273 53.3537 5.34091C53.6832 4.6553 54.1416 4.12121 54.7287 3.73864C55.3196 3.35227 56.009 3.15909 56.7969 3.15909C57.2514 3.15909 57.7003 3.23485 58.1435 3.38636C58.5866 3.53788 58.9901 3.78409 59.3537 4.125C59.7173 4.46212 60.0071 4.90909 60.223 5.46591C60.4389 6.02273 60.5469 6.70833 60.5469 7.52273V8.09091H53.8196V6.93182H59.1832C59.1832 6.43939 59.0848 6 58.8878 5.61364C58.6946 5.22727 58.4181 4.92235 58.0582 4.69886C57.7022 4.47538 57.2817 4.36364 56.7969 4.36364C56.2628 4.36364 55.8007 4.49621 55.4105 4.76136C55.0241 5.02273 54.7268 5.36364 54.5185 5.78409C54.3101 6.20455 54.206 6.6553 54.206 7.13636V7.90909C54.206 8.56818 54.3196 9.12689 54.5469 9.58523C54.7779 10.0398 55.098 10.3864 55.5071 10.625C55.9162 10.8598 56.3916 10.9773 56.9332 10.9773C57.2855 10.9773 57.6037 10.928 57.8878 10.8295C58.1757 10.7273 58.4238 10.5758 58.6321 10.375C58.8404 10.1705 59.0014 9.91667 59.1151 9.61364L60.4105 9.97727C60.2741 10.4167 60.045 10.803 59.723 11.1364C59.401 11.4659 59.0033 11.7235 58.5298 11.9091C58.0563 12.0909 57.5241 12.1818 56.9332 12.1818ZM62.5866 12V3.27273H63.8821V4.59091H63.973C64.1321 4.15909 64.42 3.80871 64.8366 3.53977C65.2533 3.27083 65.723 3.13636 66.2457 3.13636C66.3442 3.13636 66.4673 3.13826 66.6151 3.14205C66.7628 3.14583 66.8745 3.15152 66.9503 3.15909V4.52273C66.9048 4.51136 66.8007 4.49432 66.6378 4.47159C66.4787 4.44508 66.3101 4.43182 66.1321 4.43182C65.7079 4.43182 65.3291 4.52083 64.9957 4.69886C64.6662 4.87311 64.4048 5.11553 64.2116 5.42614C64.0223 5.73295 63.9276 6.08333 63.9276 6.47727V12H62.5866ZM67.7884 12V10.9773L74.0611 1.61364H67.7202V0.363636H75.7429V1.38636L69.4702 10.75H75.8111V12H67.7884ZM81.652 12.1818C80.8111 12.1818 80.0857 11.9962 79.4759 11.625C78.8698 11.25 78.402 10.7273 78.0724 10.0568C77.7467 9.38258 77.5838 8.59848 77.5838 7.70455C77.5838 6.81061 77.7467 6.02273 78.0724 5.34091C78.402 4.6553 78.8603 4.12121 79.4474 3.73864C80.0384 3.35227 80.7277 3.15909 81.5156 3.15909C81.9702 3.15909 82.419 3.23485 82.8622 3.38636C83.3054 3.53788 83.7088 3.78409 84.0724 4.125C84.4361 4.46212 84.7259 4.90909 84.9418 5.46591C85.1577 6.02273 85.2656 6.70833 85.2656 7.52273V8.09091H78.5384V6.93182H83.902C83.902 6.43939 83.8035 6 83.6065 5.61364C83.4134 5.22727 83.1368 4.92235 82.777 4.69886C82.4209 4.47538 82.0005 4.36364 81.5156 4.36364C80.9815 4.36364 80.5194 4.49621 80.1293 4.76136C79.7429 5.02273 79.4455 5.36364 79.2372 5.78409C79.0289 6.20455 78.9247 6.6553 78.9247 7.13636V7.90909C78.9247 8.56818 79.0384 9.12689 79.2656 9.58523C79.4967 10.0398 79.8168 10.3864 80.2259 10.625C80.6349 10.8598 81.1103 10.9773 81.652 10.9773C82.0043 10.9773 82.3224 10.928 82.6065 10.8295C82.8944 10.7273 83.1425 10.5758 83.3509 10.375C83.5592 10.1705 83.7202 9.91667 83.8338 9.61364L85.1293 9.97727C84.9929 10.4167 84.7637 10.803 84.4418 11.1364C84.1198 11.4659 83.7221 11.7235 83.2486 11.9091C82.7751 12.0909 82.2429 12.1818 81.652 12.1818ZM88.6463 0.363636V12H87.3054V0.363636H88.6463Z"/>
</mask>
<path d="M4.40909 12V0.363636H5.81818V6.13636H5.95455L11.1818 0.363636H13.0227L8.13636 5.61364L13.0227 12H11.3182L7.27273 6.59091L5.81818 8.22727V12H4.40909ZM17.5696 12.1818C16.7817 12.1818 16.0904 11.9943 15.4957 11.6193C14.9048 11.2443 14.4427 10.7197 14.1094 10.0455C13.7798 9.37121 13.6151 8.58333 13.6151 7.68182C13.6151 6.77273 13.7798 5.97917 14.1094 5.30114C14.4427 4.62311 14.9048 4.09659 15.4957 3.72159C16.0904 3.34659 16.7817 3.15909 17.5696 3.15909C18.3575 3.15909 19.0469 3.34659 19.6378 3.72159C20.2325 4.09659 20.6946 4.62311 21.0241 5.30114C21.3575 5.97917 21.5241 6.77273 21.5241 7.68182C21.5241 8.58333 21.3575 9.37121 21.0241 10.0455C20.6946 10.7197 20.2325 11.2443 19.6378 11.6193C19.0469 11.9943 18.3575 12.1818 17.5696 12.1818ZM17.5696 10.9773C18.1681 10.9773 18.6605 10.8239 19.0469 10.517C19.4332 10.2102 19.7192 9.80682 19.9048 9.30682C20.0904 8.80682 20.1832 8.26515 20.1832 7.68182C20.1832 7.09848 20.0904 6.55492 19.9048 6.05114C19.7192 5.54735 19.4332 5.14015 19.0469 4.82955C18.6605 4.51894 18.1681 4.36364 17.5696 4.36364C16.9711 4.36364 16.4787 4.51894 16.0923 4.82955C15.706 5.14015 15.42 5.54735 15.2344 6.05114C15.0488 6.55492 14.956 7.09848 14.956 7.68182C14.956 8.26515 15.0488 8.80682 15.2344 9.30682C15.42 9.80682 15.706 10.2102 16.0923 10.517C16.4787 10.8239 16.9711 10.9773 17.5696 10.9773ZM23.571 15.2727V3.27273H24.8665V4.65909H25.0256C25.1241 4.50758 25.2604 4.31439 25.4347 4.07955C25.6127 3.84091 25.8665 3.62879 26.196 3.44318C26.5294 3.25379 26.9801 3.15909 27.5483 3.15909C28.2831 3.15909 28.9309 3.3428 29.4915 3.71023C30.0521 4.07765 30.4896 4.59848 30.804 5.27273C31.1184 5.94697 31.2756 6.74242 31.2756 7.65909C31.2756 8.58333 31.1184 9.38447 30.804 10.0625C30.4896 10.7367 30.054 11.2595 29.4972 11.6307C28.9403 11.9981 28.2983 12.1818 27.571 12.1818C27.0104 12.1818 26.5616 12.089 26.2244 11.9034C25.8873 11.714 25.6278 11.5 25.446 11.2614C25.2642 11.0189 25.1241 10.8182 25.0256 10.6591H24.9119V15.2727H23.571ZM24.8892 7.63636C24.8892 8.29545 24.9858 8.87689 25.179 9.38068C25.3722 9.88068 25.6544 10.2727 26.0256 10.5568C26.3968 10.8371 26.8513 10.9773 27.3892 10.9773C27.9498 10.9773 28.4176 10.8295 28.7926 10.5341C29.1714 10.2348 29.4555 9.83333 29.6449 9.32955C29.8381 8.82197 29.9347 8.25758 29.9347 7.63636C29.9347 7.02273 29.84 6.4697 29.6506 5.97727C29.465 5.48106 29.1828 5.08902 28.804 4.80114C28.429 4.50947 27.9574 4.36364 27.3892 4.36364C26.8438 4.36364 26.3854 4.50189 26.0142 4.77841C25.643 5.05114 25.3627 5.43371 25.1733 5.92614C24.9839 6.41477 24.8892 6.98485 24.8892 7.63636ZM39.8665 3.27273C39.7983 2.69697 39.5218 2.25 39.0369 1.93182C38.5521 1.61364 37.9574 1.45455 37.2528 1.45455C36.7377 1.45455 36.2869 1.53788 35.9006 1.70455C35.518 1.87121 35.2188 2.10038 35.0028 2.39205C34.7907 2.68371 34.6847 3.01515 34.6847 3.38636C34.6847 3.69697 34.7585 3.96401 34.9062 4.1875C35.0578 4.4072 35.2509 4.59091 35.4858 4.73864C35.7206 4.88258 35.9669 5.00189 36.2244 5.09659C36.482 5.1875 36.7188 5.26136 36.9347 5.31818L38.1165 5.63636C38.4195 5.71591 38.7566 5.82576 39.1278 5.96591C39.5028 6.10606 39.8608 6.29735 40.2017 6.53977C40.5464 6.77841 40.8305 7.08523 41.054 7.46023C41.2775 7.83523 41.3892 8.29545 41.3892 8.84091C41.3892 9.4697 41.2244 10.0379 40.8949 10.5455C40.5691 11.053 40.0919 11.4564 39.4631 11.7557C38.8381 12.0549 38.0786 12.2045 37.1847 12.2045C36.3513 12.2045 35.6297 12.0701 35.0199 11.8011C34.4138 11.5322 33.9366 11.1572 33.5881 10.6761C33.2434 10.1951 33.0483 9.63636 33.0028 9H34.4574C34.4953 9.43939 34.643 9.80303 34.9006 10.0909C35.1619 10.375 35.4915 10.5871 35.8892 10.7273C36.2907 10.8636 36.7225 10.9318 37.1847 10.9318C37.7225 10.9318 38.2055 10.8447 38.6335 10.6705C39.0616 10.4924 39.4006 10.2462 39.6506 9.93182C39.9006 9.61364 40.0256 9.24242 40.0256 8.81818C40.0256 8.43182 39.9176 8.11742 39.7017 7.875C39.4858 7.63258 39.2017 7.43561 38.8494 7.28409C38.4972 7.13258 38.1165 7 37.7074 6.88636L36.2756 6.47727C35.3665 6.21591 34.6468 5.8428 34.1165 5.35795C33.5862 4.87311 33.321 4.23864 33.321 3.45455C33.321 2.80303 33.4972 2.23485 33.8494 1.75C34.2055 1.26136 34.6828 0.882575 35.2812 0.613636C35.8835 0.340909 36.5559 0.204545 37.2983 0.204545C38.0483 0.204545 38.715 0.339015 39.2983 0.607954C39.8816 0.873105 40.3438 1.23674 40.6847 1.69886C41.0294 2.16098 41.2112 2.68561 41.2301 3.27273H39.8665ZM43.5241 15.2727V3.27273H44.8196V4.65909H44.9787C45.0772 4.50758 45.2135 4.31439 45.3878 4.07955C45.5658 3.84091 45.8196 3.62879 46.1491 3.44318C46.4825 3.25379 46.9332 3.15909 47.5014 3.15909C48.2363 3.15909 48.884 3.3428 49.4446 3.71023C50.0052 4.07765 50.4427 4.59848 50.7571 5.27273C51.0715 5.94697 51.2287 6.74242 51.2287 7.65909C51.2287 8.58333 51.0715 9.38447 50.7571 10.0625C50.4427 10.7367 50.0071 11.2595 49.4503 11.6307C48.8935 11.9981 48.2514 12.1818 47.5241 12.1818C46.9635 12.1818 46.5147 12.089 46.1776 11.9034C45.8404 11.714 45.581 11.5 45.3991 11.2614C45.2173 11.0189 45.0772 10.8182 44.9787 10.6591H44.8651V15.2727H43.5241ZM44.8423 7.63636C44.8423 8.29545 44.9389 8.87689 45.1321 9.38068C45.3253 9.88068 45.6075 10.2727 45.9787 10.5568C46.3499 10.8371 46.8045 10.9773 47.3423 10.9773C47.9029 10.9773 48.3707 10.8295 48.7457 10.5341C49.1245 10.2348 49.4086 9.83333 49.598 9.32955C49.7912 8.82197 49.8878 8.25758 49.8878 7.63636C49.8878 7.02273 49.7931 6.4697 49.6037 5.97727C49.4181 5.48106 49.1359 5.08902 48.7571 4.80114C48.3821 4.50947 47.9105 4.36364 47.3423 4.36364C46.7969 4.36364 46.3385 4.50189 45.9673 4.77841C45.5961 5.05114 45.3158 5.43371 45.1264 5.92614C44.937 6.41477 44.8423 6.98485 44.8423 7.63636ZM56.9332 12.1818C56.0923 12.1818 55.367 11.9962 54.7571 11.625C54.151 11.25 53.6832 10.7273 53.3537 10.0568C53.0279 9.38258 52.8651 8.59848 52.8651 7.70455C52.8651 6.81061 53.0279 6.02273 53.3537 5.34091C53.6832 4.6553 54.1416 4.12121 54.7287 3.73864C55.3196 3.35227 56.009 3.15909 56.7969 3.15909C57.2514 3.15909 57.7003 3.23485 58.1435 3.38636C58.5866 3.53788 58.9901 3.78409 59.3537 4.125C59.7173 4.46212 60.0071 4.90909 60.223 5.46591C60.4389 6.02273 60.5469 6.70833 60.5469 7.52273V8.09091H53.8196V6.93182H59.1832C59.1832 6.43939 59.0848 6 58.8878 5.61364C58.6946 5.22727 58.4181 4.92235 58.0582 4.69886C57.7022 4.47538 57.2817 4.36364 56.7969 4.36364C56.2628 4.36364 55.8007 4.49621 55.4105 4.76136C55.0241 5.02273 54.7268 5.36364 54.5185 5.78409C54.3101 6.20455 54.206 6.6553 54.206 7.13636V7.90909C54.206 8.56818 54.3196 9.12689 54.5469 9.58523C54.7779 10.0398 55.098 10.3864 55.5071 10.625C55.9162 10.8598 56.3916 10.9773 56.9332 10.9773C57.2855 10.9773 57.6037 10.928 57.8878 10.8295C58.1757 10.7273 58.4238 10.5758 58.6321 10.375C58.8404 10.1705 59.0014 9.91667 59.1151 9.61364L60.4105 9.97727C60.2741 10.4167 60.045 10.803 59.723 11.1364C59.401 11.4659 59.0033 11.7235 58.5298 11.9091C58.0563 12.0909 57.5241 12.1818 56.9332 12.1818ZM62.5866 12V3.27273H63.8821V4.59091H63.973C64.1321 4.15909 64.42 3.80871 64.8366 3.53977C65.2533 3.27083 65.723 3.13636 66.2457 3.13636C66.3442 3.13636 66.4673 3.13826 66.6151 3.14205C66.7628 3.14583 66.8745 3.15152 66.9503 3.15909V4.52273C66.9048 4.51136 66.8007 4.49432 66.6378 4.47159C66.4787 4.44508 66.3101 4.43182 66.1321 4.43182C65.7079 4.43182 65.3291 4.52083 64.9957 4.69886C64.6662 4.87311 64.4048 5.11553 64.2116 5.42614C64.0223 5.73295 63.9276 6.08333 63.9276 6.47727V12H62.5866ZM67.7884 12V10.9773L74.0611 1.61364H67.7202V0.363636H75.7429V1.38636L69.4702 10.75H75.8111V12H67.7884ZM81.652 12.1818C80.8111 12.1818 80.0857 11.9962 79.4759 11.625C78.8698 11.25 78.402 10.7273 78.0724 10.0568C77.7467 9.38258 77.5838 8.59848 77.5838 7.70455C77.5838 6.81061 77.7467 6.02273 78.0724 5.34091C78.402 4.6553 78.8603 4.12121 79.4474 3.73864C80.0384 3.35227 80.7277 3.15909 81.5156 3.15909C81.9702 3.15909 82.419 3.23485 82.8622 3.38636C83.3054 3.53788 83.7088 3.78409 84.0724 4.125C84.4361 4.46212 84.7259 4.90909 84.9418 5.46591C85.1577 6.02273 85.2656 6.70833 85.2656 7.52273V8.09091H78.5384V6.93182H83.902C83.902 6.43939 83.8035 6 83.6065 5.61364C83.4134 5.22727 83.1368 4.92235 82.777 4.69886C82.4209 4.47538 82.0005 4.36364 81.5156 4.36364C80.9815 4.36364 80.5194 4.49621 80.1293 4.76136C79.7429 5.02273 79.4455 5.36364 79.2372 5.78409C79.0289 6.20455 78.9247 6.6553 78.9247 7.13636V7.90909C78.9247 8.56818 79.0384 9.12689 79.2656 9.58523C79.4967 10.0398 79.8168 10.3864 80.2259 10.625C80.6349 10.8598 81.1103 10.9773 81.652 10.9773C82.0043 10.9773 82.3224 10.928 82.6065 10.8295C82.8944 10.7273 83.1425 10.5758 83.3509 10.375C83.5592 10.1705 83.7202 9.91667 83.8338 9.61364L85.1293 9.97727C84.9929 10.4167 84.7637 10.803 84.4418 11.1364C84.1198 11.4659 83.7221 11.7235 83.2486 11.9091C82.7751 12.0909 82.2429 12.1818 81.652 12.1818ZM88.6463 0.363636V12H87.3054V0.363636H88.6463Z" fill="black"/>
<path d="M4.40909 12H3.40909V13H4.40909V12ZM4.40909 0.363636V-0.636364H3.40909V0.363636H4.40909ZM5.81818 0.363636H6.81818V-0.636364H5.81818V0.363636ZM5.81818 6.13636H4.81818V7.13636H5.81818V6.13636ZM5.95455 6.13636V7.13636H6.39809L6.6958 6.80758L5.95455 6.13636ZM11.1818 0.363636V-0.636364H10.7383L10.4406 -0.307583L11.1818 0.363636ZM13.0227 0.363636L13.7547 1.04494L15.3196 -0.636364H13.0227V0.363636ZM8.13636 5.61364L7.40436 4.93233L6.82896 5.55055L7.34217 6.2213L8.13636 5.61364ZM13.0227 12V13H15.047L13.8169 11.3923L13.0227 12ZM11.3182 12L10.5174 12.5989L10.8173 13H11.3182V12ZM7.27273 6.59091L8.07353 5.99199L7.33953 5.01056L6.52532 5.92655L7.27273 6.59091ZM5.81818 8.22727L5.07077 7.56291L4.81818 7.84707V8.22727H5.81818ZM5.81818 12V13H6.81818V12H5.81818ZM5.40909 12V0.363636H3.40909V12H5.40909ZM4.40909 1.36364H5.81818V-0.636364H4.40909V1.36364ZM4.81818 0.363636V6.13636H6.81818V0.363636H4.81818ZM5.81818 7.13636H5.95455V5.13636H5.81818V7.13636ZM6.6958 6.80758L11.9231 1.03485L10.4406 -0.307583L5.21329 5.46514L6.6958 6.80758ZM11.1818 1.36364H13.0227V-0.636364H11.1818V1.36364ZM12.2907 -0.317665L7.40436 4.93233L8.86837 6.29494L13.7547 1.04494L12.2907 -0.317665ZM7.34217 6.2213L12.2285 12.6077L13.8169 11.3923L8.93056 5.00598L7.34217 6.2213ZM13.0227 11H11.3182V13H13.0227V11ZM12.119 11.4011L8.07353 5.99199L6.47192 7.18983L10.5174 12.5989L12.119 11.4011ZM6.52532 5.92655L5.07077 7.56291L6.56559 8.89164L8.02014 7.25527L6.52532 5.92655ZM4.81818 8.22727V12H6.81818V8.22727H4.81818ZM5.81818 11H4.40909V13H5.81818V11ZM15.4957 11.6193L14.9599 12.4637L14.9624 12.4652L15.4957 11.6193ZM14.1094 10.0455L13.2109 10.4846L13.2129 10.4886L14.1094 10.0455ZM14.1094 5.30114L13.212 4.85994L13.21 4.864L14.1094 5.30114ZM15.4957 3.72159L14.9624 2.87571L14.9599 2.87726L15.4957 3.72159ZM19.6378 3.72159L19.102 4.56592L19.1044 4.56746L19.6378 3.72159ZM21.0241 5.30114L20.1247 5.73828L20.1267 5.74232L21.0241 5.30114ZM21.0241 10.0455L20.1277 9.60227L20.1257 9.60633L21.0241 10.0455ZM19.6378 11.6193L19.1044 10.7734L19.102 10.775L19.6378 11.6193ZM19.0469 10.517L18.425 9.73393L19.0469 10.517ZM19.9048 9.30682L20.8423 9.65483L19.9048 9.30682ZM19.9048 6.05114L20.8432 5.70543L20.8432 5.70543L19.9048 6.05114ZM19.0469 4.82955L19.6734 4.05017L19.0469 4.82955ZM16.0923 4.82955L15.4658 4.05017L16.0923 4.82955ZM15.2344 6.05114L14.296 5.70543V5.70543L15.2344 6.05114ZM15.2344 9.30682L14.2969 9.65483L15.2344 9.30682ZM16.0923 10.517L16.7142 9.73393H16.7142L16.0923 10.517ZM17.5696 11.1818C16.947 11.1818 16.4454 11.0359 16.0291 10.7734L14.9624 12.4652C15.7355 12.9527 16.6164 13.1818 17.5696 13.1818V11.1818ZM16.0316 10.775C15.6069 10.5055 15.2643 10.125 15.0058 9.60227L13.2129 10.4886C13.6212 11.3144 14.2027 11.9831 14.9599 12.4636L16.0316 10.775ZM15.0078 9.60633C14.7572 9.09364 14.6151 8.4614 14.6151 7.68182H12.6151C12.6151 8.70527 12.8024 9.64879 13.2109 10.4846L15.0078 9.60633ZM14.6151 7.68182C14.6151 6.89342 14.7577 6.25489 15.0088 5.73827L13.21 4.864C12.802 5.70344 12.6151 6.65203 12.6151 7.68182H14.6151ZM15.0068 5.74232C15.2657 5.21574 15.6083 4.83452 16.0316 4.56592L14.9599 2.87726C14.2013 3.35866 13.6197 4.03047 13.212 4.85995L15.0068 5.74232ZM16.0291 4.56746C16.4454 4.30498 16.947 4.15909 17.5696 4.15909V2.15909C16.6164 2.15909 15.7355 2.3882 14.9624 2.87572L16.0291 4.56746ZM17.5696 4.15909C18.1923 4.15909 18.6908 4.30501 19.102 4.56592L20.1736 2.87726C19.4029 2.38818 18.5227 2.15909 17.5696 2.15909V4.15909ZM19.1044 4.56746C19.5299 4.83578 19.8706 5.21532 20.1248 5.73827L21.9235 4.864C21.5186 4.03089 20.9351 3.3574 20.1712 2.87572L19.1044 4.56746ZM20.1267 5.74232C20.3802 6.25795 20.5241 6.89499 20.5241 7.68182H22.5241C22.5241 6.65046 22.3347 5.70039 21.9216 4.85995L20.1267 5.74232ZM20.5241 7.68182C20.5241 8.45981 20.3807 9.09057 20.1277 9.60227L21.9206 10.4886C22.3343 9.65185 22.5241 8.70685 22.5241 7.68182H20.5241ZM20.1257 9.60633C19.872 10.1255 19.5313 10.5042 19.1044 10.7734L20.1712 12.4652C20.9336 11.9844 21.5172 11.3139 21.9226 10.4846L20.1257 9.60633ZM19.102 10.775C18.6908 11.0359 18.1923 11.1818 17.5696 11.1818V13.1818C18.5227 13.1818 19.4029 12.9527 20.1736 12.4636L19.102 10.775ZM17.5696 11.9773C18.3443 11.9773 19.0702 11.7755 19.6688 11.3002L18.425 9.73393C18.2508 9.87226 17.9919 9.97727 17.5696 9.97727V11.9773ZM19.6688 11.3002C20.2096 10.8707 20.5985 10.3116 20.8423 9.65483L18.9673 8.95881C18.8399 9.30206 18.6569 9.5498 18.425 9.73393L19.6688 11.3002ZM20.8423 9.65483C21.073 9.03347 21.1832 8.37281 21.1832 7.68182H19.1832C19.1832 8.15749 19.1079 8.58016 18.9673 8.95881L20.8423 9.65483ZM21.1832 7.68182C21.1832 6.99074 21.073 6.32912 20.8432 5.70543L18.9665 6.39684C19.1079 6.78073 19.1832 7.20623 19.1832 7.68182H21.1832ZM20.8432 5.70543C20.6003 5.04612 20.2128 4.48377 19.6734 4.05017L18.4203 5.60892C18.6537 5.79653 18.8382 6.04858 18.9665 6.39684L20.8432 5.70543ZM19.6734 4.05017C19.0748 3.56888 18.3471 3.36364 17.5696 3.36364V5.36364C17.9891 5.36364 18.2463 5.469 18.4203 5.60892L19.6734 4.05017ZM17.5696 3.36364C16.7921 3.36364 16.0644 3.56888 15.4658 4.05017L16.7189 5.60892C16.8929 5.469 17.1501 5.36364 17.5696 5.36364V3.36364ZM15.4658 4.05017C14.9264 4.48377 14.5389 5.04612 14.296 5.70543L16.1727 6.39684C16.301 6.04858 16.4855 5.79653 16.7189 5.60892L15.4658 4.05017ZM14.296 5.70543C14.0663 6.32912 13.956 6.99074 13.956 7.68182H15.956C15.956 7.20623 16.0313 6.78073 16.1727 6.39684L14.296 5.70543ZM13.956 7.68182C13.956 8.37281 14.0662 9.03347 14.2969 9.65483L16.1719 8.95881C16.0313 8.58016 15.956 8.15749 15.956 7.68182H13.956ZM14.2969 9.65483C14.5407 10.3116 14.9296 10.8707 15.4704 11.3002L16.7142 9.73393C16.4823 9.5498 16.2993 9.30206 16.1719 8.95881L14.2969 9.65483ZM15.4704 11.3002C16.069 11.7755 16.7949 11.9773 17.5696 11.9773V9.97727C17.1473 9.97727 16.8884 9.87226 16.7142 9.73393L15.4704 11.3002ZM23.571 15.2727H22.571V16.2727H23.571V15.2727ZM23.571 3.27273V2.27273H22.571V3.27273H23.571ZM24.8665 3.27273H25.8665V2.27273H24.8665V3.27273ZM24.8665 4.65909H23.8665V5.65909H24.8665V4.65909ZM25.0256 4.65909V5.65909H25.5683L25.864 5.20408L25.0256 4.65909ZM25.4347 4.07955L24.6331 3.48158L24.6316 3.4837L25.4347 4.07955ZM26.196 3.44318L26.6868 4.3145L26.69 4.31264L26.196 3.44318ZM29.4915 3.71023L30.0396 2.87386L29.4915 3.71023ZM30.804 5.27273L31.7103 4.85012V4.85012L30.804 5.27273ZM30.804 10.0625L31.7103 10.4851L31.7112 10.4832L30.804 10.0625ZM29.4972 11.6307L30.0479 12.4654L30.0519 12.4627L29.4972 11.6307ZM26.2244 11.9034L25.7346 12.7753L25.7421 12.7794L26.2244 11.9034ZM25.446 11.2614L24.646 11.8614L24.6506 11.8674L25.446 11.2614ZM25.0256 10.6591L25.8758 10.1327L25.5826 9.65909H25.0256V10.6591ZM24.9119 10.6591V9.65909H23.9119V10.6591H24.9119ZM24.9119 15.2727V16.2727H25.9119V15.2727H24.9119ZM25.179 9.38068L24.2453 9.73872L24.2462 9.74108L25.179 9.38068ZM26.0256 10.5568L25.4178 11.351L25.423 11.3549L26.0256 10.5568ZM28.7926 10.5341L29.4115 11.3196L29.4125 11.3188L28.7926 10.5341ZM29.6449 9.32955L28.7103 8.97384L28.7088 8.97765L29.6449 9.32955ZM29.6506 5.97727L28.7139 6.32763L28.7172 6.33625L29.6506 5.97727ZM28.804 4.80114L28.19 5.59054L28.1989 5.5973L28.804 4.80114ZM26.0142 4.77841L26.6063 5.58431L26.6116 5.58037L26.0142 4.77841ZM25.1733 5.92614L26.1057 6.28754L26.1066 6.28512L25.1733 5.92614ZM24.571 15.2727V3.27273H22.571V15.2727H24.571ZM23.571 4.27273H24.8665V2.27273H23.571V4.27273ZM23.8665 3.27273V4.65909H25.8665V3.27273H23.8665ZM24.8665 5.65909H25.0256V3.65909H24.8665V5.65909ZM25.864 5.20408C25.9466 5.07709 26.0693 4.90242 26.2378 4.67539L24.6316 3.4837C24.4515 3.72637 24.3016 3.93806 24.1871 4.1141L25.864 5.20408ZM26.2362 4.67751C26.3115 4.57653 26.4471 4.44949 26.6868 4.31449L25.7053 2.57187C25.2859 2.80808 24.9139 3.10529 24.6331 3.48158L26.2362 4.67751ZM26.69 4.31264C26.8173 4.24033 27.0758 4.15909 27.5483 4.15909V2.15909C26.8845 2.15909 26.2414 2.26724 25.702 2.57373L26.69 4.31264ZM27.5483 4.15909C28.1079 4.15909 28.5612 4.29615 28.9433 4.5466L30.0396 2.87386C29.3006 2.38945 28.4584 2.15909 27.5483 2.15909V4.15909ZM28.9433 4.5466C29.3317 4.80112 29.653 5.17053 29.8977 5.69533L31.7103 4.85012C31.3262 4.02643 30.7725 3.35418 30.0396 2.87386L28.9433 4.5466ZM29.8977 5.69533C30.1377 6.21019 30.2756 6.85532 30.2756 7.65909H32.2756C32.2756 6.62953 32.099 5.68375 31.7103 4.85012L29.8977 5.69533ZM30.2756 7.65909C30.2756 8.47158 30.1373 9.12299 29.8968 9.64184L31.7112 10.4832C32.0994 9.64595 32.2756 8.69509 32.2756 7.65909H30.2756ZM29.8977 9.63989C29.6518 10.1671 29.3301 10.5402 28.9425 10.7986L30.0519 12.4627C30.7778 11.9788 31.3273 11.3064 31.7103 10.4851L29.8977 9.63989ZM28.9464 10.796C28.5677 11.0459 28.1209 11.1818 27.571 11.1818V13.1818C28.4757 13.1818 29.3129 12.9503 30.0479 12.4653L28.9464 10.796ZM27.571 11.1818C27.1072 11.1818 26.8439 11.1029 26.7067 11.0274L25.7421 12.7794C26.2792 13.0751 26.9136 13.1818 27.571 13.1818V11.1818ZM26.7142 11.0316C26.4631 10.8905 26.3204 10.759 26.2415 10.6553L24.6506 11.8674C24.9353 12.241 25.3115 12.5375 25.7346 12.7752L26.7142 11.0316ZM26.246 10.6614C26.0726 10.4301 25.9521 10.256 25.8758 10.1327L24.1753 11.1854C24.296 11.3804 24.4558 11.6078 24.646 11.8614L26.246 10.6614ZM25.0256 9.65909H24.9119V11.6591H25.0256V9.65909ZM23.9119 10.6591V15.2727H25.9119V10.6591H23.9119ZM24.9119 14.2727H23.571V16.2727H24.9119V14.2727ZM23.8892 7.63636C23.8892 8.39157 23.9998 9.09844 24.2453 9.73872L26.1127 9.02264C25.9718 8.65535 25.8892 8.19934 25.8892 7.63636H23.8892ZM24.2462 9.74108C24.4958 10.3871 24.88 10.9393 25.4178 11.3509L26.6333 9.76269C26.4288 9.60614 26.2485 9.37424 26.1118 9.02028L24.2462 9.74108ZM25.423 11.3549C25.994 11.7861 26.6692 11.9773 27.3892 11.9773V9.97727C27.0334 9.97727 26.7995 9.88818 26.6282 9.75878L25.423 11.3549ZM27.3892 11.9773C28.1336 11.9773 28.8306 11.7773 29.4115 11.3196L28.1737 9.7486C28.0047 9.88182 27.766 9.97727 27.3892 9.97727V11.9773ZM29.4125 11.3188C29.9501 10.8941 30.3351 10.3355 30.5809 9.68144L28.7088 8.97765C28.5759 9.33121 28.3927 9.57559 28.1727 9.74941L29.4125 11.3188ZM30.5795 9.68525C30.8217 9.04896 30.9347 8.36185 30.9347 7.63636H28.9347C28.9347 8.1533 28.8545 8.59498 28.7103 8.97384L30.5795 9.68525ZM30.9347 7.63636C30.9347 6.91969 30.8239 6.24232 30.5839 5.61829L28.7172 6.33625C28.856 6.69707 28.9347 7.12576 28.9347 7.63636H30.9347ZM30.5872 5.62693C30.3432 4.97452 29.955 4.41986 29.4091 4.00497L28.1989 5.5973C28.4106 5.75817 28.5868 5.9876 28.7139 6.32761L30.5872 5.62693ZM29.4179 4.01178C28.8348 3.55828 28.1347 3.36364 27.3892 3.36364V5.36364C27.7801 5.36364 28.0231 5.46065 28.19 5.59049L29.4179 4.01178ZM27.3892 3.36364C26.6682 3.36364 25.99 3.54951 25.4168 3.97645L26.6116 5.58037C26.7809 5.45428 27.0193 5.36364 27.3892 5.36364V3.36364ZM25.4221 3.97253C24.8753 4.37429 24.4878 4.9228 24.24 5.56716L26.1066 6.28512C26.2376 5.94462 26.4107 5.72798 26.6063 5.58429L25.4221 3.97253ZM24.2409 5.56474C23.9974 6.19288 23.8892 6.89023 23.8892 7.63636H25.8892C25.8892 7.07947 25.9704 6.63667 26.1057 6.28754L24.2409 5.56474ZM39.8665 3.27273L38.8734 3.39033L38.9779 4.27273H39.8665V3.27273ZM39.0369 1.93182L38.4883 2.76787L39.0369 1.93182ZM35.9006 1.70455L35.5045 0.786328L35.5012 0.787764L35.9006 1.70455ZM35.0028 2.39205L34.1991 1.79705L34.1941 1.80387L35.0028 2.39205ZM34.9062 4.1875L34.072 4.73893L34.0775 4.74714L34.083 4.75523L34.9062 4.1875ZM35.4858 4.73864L34.9533 5.58515L34.9632 5.59124L35.4858 4.73864ZM36.2244 5.09659L35.8793 6.03525L35.8916 6.03958L36.2244 5.09659ZM36.9347 5.31818L37.1946 4.35255L37.1892 4.35111L36.9347 5.31818ZM38.1165 5.63636L37.8565 6.602L37.8626 6.60359L38.1165 5.63636ZM39.1278 5.96591L38.7746 6.90146L38.7778 6.90263L39.1278 5.96591ZM40.2017 6.53977L39.6221 7.35479L39.6325 7.36196L40.2017 6.53977ZM41.054 7.46023L41.913 6.94829V6.94829L41.054 7.46023ZM40.8949 10.5455L40.0561 10.0009L40.0533 10.0053L40.8949 10.5455ZM39.4631 11.7557L39.0333 10.8527L39.0312 10.8537L39.4631 11.7557ZM35.0199 11.8011L34.6143 12.7152L34.6164 12.7161L35.0199 11.8011ZM33.5881 10.6761L32.7752 11.2586L32.7782 11.2628L33.5881 10.6761ZM33.0028 9V8H31.9289L32.0054 9.07125L33.0028 9ZM34.4574 9L35.4537 8.91411L35.3749 8H34.4574V9ZM34.9006 10.0909L34.1553 10.7578L34.1646 10.768L34.9006 10.0909ZM35.8892 10.7273L35.5568 11.6705L35.5676 11.6742L35.8892 10.7273ZM38.6335 10.6705L39.0106 11.5967L39.0176 11.5938L38.6335 10.6705ZM39.6506 9.93182L40.4333 10.5542L40.4369 10.5496L39.6506 9.93182ZM39.7017 7.875L40.4485 7.20991L39.7017 7.875ZM38.8494 7.28409L38.4543 8.20272H38.4543L38.8494 7.28409ZM37.7074 6.88636L37.4327 7.84791L37.4397 7.84988L37.7074 6.88636ZM36.2756 6.47727L35.9993 7.43834L36.0008 7.4388L36.2756 6.47727ZM34.1165 5.35795L33.4417 6.09598L34.1165 5.35795ZM33.8494 1.75L33.0412 1.16108L33.0404 1.1622L33.8494 1.75ZM35.2812 0.613636L35.6911 1.52578L35.6938 1.52459L35.2812 0.613636ZM39.2983 0.607954L38.8796 1.5161L38.8845 1.51832L39.2983 0.607954ZM40.6847 1.69886L39.8799 2.29252L39.8831 2.29676L40.6847 1.69886ZM41.2301 3.27273V4.27273H42.2629L42.2296 3.24049L41.2301 3.27273ZM40.8595 3.15513C40.7566 2.28591 40.3173 1.57599 39.5856 1.09577L38.4883 2.76787C38.7262 2.92401 38.84 3.10803 38.8734 3.39033L40.8595 3.15513ZM39.5856 1.09577C38.9057 0.649571 38.1101 0.454545 37.2528 0.454545V2.45455C37.8047 2.45455 38.1985 2.5777 38.4883 2.76787L39.5856 1.09577ZM37.2528 0.454545C36.6312 0.454545 36.0406 0.555051 35.5045 0.786334L36.2967 2.62276C36.5332 2.52071 36.8441 2.45455 37.2528 2.45455V0.454545ZM35.5012 0.787764C34.9824 1.01378 34.5341 1.34459 34.1991 1.79707L35.8066 2.98702C35.9035 2.85617 36.0536 2.72865 36.3 2.62133L35.5012 0.787764ZM34.1941 1.80387C33.8538 2.27175 33.6847 2.81044 33.6847 3.38636H35.6847C35.6847 3.21986 35.7276 3.09568 35.8116 2.98022L34.1941 1.80387ZM33.6847 3.38636C33.6847 3.86102 33.7998 4.32704 34.072 4.73893L35.7405 3.63607C35.7173 3.60099 35.6847 3.53291 35.6847 3.38636H33.6847ZM34.083 4.75523C34.3146 5.09103 34.6083 5.36806 34.9533 5.5851L36.0182 3.89218C35.8936 3.81375 35.8009 3.72336 35.7295 3.61977L34.083 4.75523ZM34.9632 5.59124C35.2541 5.76949 35.5597 5.91765 35.8794 6.03517L36.5695 4.15801C36.374 4.08614 36.1872 3.99566 36.0084 3.88603L34.9632 5.59124ZM35.8916 6.03958C36.1695 6.13766 36.4328 6.22015 36.6802 6.28526L37.1892 4.35111C37.0047 4.30257 36.7945 4.23734 36.5573 4.1536L35.8916 6.03958ZM36.6747 6.2838L37.8565 6.60198L38.3764 4.67075L37.1946 4.35257L36.6747 6.2838ZM37.8626 6.60359C38.1245 6.67235 38.4278 6.77052 38.7746 6.90145L39.4811 5.03037C39.0854 4.881 38.7145 4.75946 38.3704 4.66913L37.8626 6.60359ZM38.7778 6.90263C39.0677 7.011 39.3489 7.16043 39.6222 7.35473L40.7812 5.72482C40.3726 5.43427 39.938 5.20112 39.4779 5.02919L38.7778 6.90263ZM39.6325 7.36196C39.8546 7.51574 40.0417 7.71494 40.195 7.97217L41.913 6.94829C41.6193 6.45552 41.2382 6.04107 40.7709 5.71758L39.6325 7.36196ZM40.195 7.97217C40.3058 8.15809 40.3892 8.43113 40.3892 8.84091H42.3892C42.3892 8.15978 42.2492 7.51237 41.913 6.94829L40.195 7.97217ZM40.3892 8.84091C40.3892 9.28437 40.2762 9.66199 40.0562 10.0009L41.7336 11.09C42.1727 10.4138 42.3892 9.65503 42.3892 8.84091H40.3892ZM40.0533 10.0053C39.8431 10.3329 39.5202 10.621 39.0333 10.8527L39.8928 12.6586C40.6635 12.2919 41.2952 11.7732 41.7365 11.0856L40.0533 10.0053ZM39.0312 10.8537C38.5742 11.0725 37.9709 11.2045 37.1847 11.2045V13.2045C38.1863 13.2045 39.1019 13.0373 39.8949 12.6576L39.0312 10.8537ZM37.1847 11.2045C36.4566 11.2045 35.8785 11.0869 35.4234 10.8862L34.6164 12.7161C35.381 13.0533 36.2461 13.2045 37.1847 13.2045V11.2045ZM35.4255 10.8871C34.9615 10.6812 34.6312 10.4116 34.3979 10.0895L32.7782 11.2628C33.2419 11.9028 33.8661 12.3832 34.6143 12.7152L35.4255 10.8871ZM34.4009 10.0937C34.1722 9.77444 34.0337 9.39587 34.0003 8.92875L32.0054 9.07125C32.0629 9.87686 32.3146 10.6157 32.7752 11.2586L34.4009 10.0937ZM33.0028 10H34.4574V8H33.0028V10ZM33.4611 9.08589C33.5148 9.70907 33.7334 10.2861 34.1553 10.7577L35.6458 9.42411C35.5526 9.31993 35.4757 9.16971 35.4537 8.91411L33.4611 9.08589ZM34.1646 10.768C34.5467 11.1833 35.0194 11.4811 35.5569 11.6704L36.2216 9.78412C35.9635 9.69319 35.7771 9.5667 35.6365 9.41385L34.1646 10.768ZM35.5676 11.6742C36.0816 11.8487 36.623 11.9318 37.1847 11.9318V9.93182C36.8221 9.93182 36.4998 9.87856 36.2108 9.78039L35.5676 11.6742ZM37.1847 11.9318C37.8309 11.9318 38.4449 11.8269 39.0106 11.5967L38.2565 9.74426C37.9661 9.86245 37.6142 9.93182 37.1847 9.93182V11.9318ZM39.0176 11.5938C39.5775 11.3609 40.0627 11.0202 40.4333 10.5542L38.8679 9.30943C38.7384 9.47223 38.5456 9.62397 38.2495 9.74714L39.0176 11.5938ZM40.4369 10.5496C40.8324 10.0463 41.0256 9.45482 41.0256 8.81818H39.0256C39.0256 9.03003 38.9688 9.18096 38.8643 9.314L40.4369 10.5496ZM41.0256 8.81818C41.0256 8.23575 40.8575 7.66915 40.4485 7.20991L38.9549 8.54009C38.9777 8.56569 39.0256 8.62788 39.0256 8.81818H41.0256ZM40.4485 7.20991C40.1192 6.84024 39.7071 6.56439 39.2445 6.36546L38.4543 8.20272C38.6964 8.30682 38.8524 8.42491 38.9549 8.54009L40.4485 7.20991ZM39.2445 6.36546C38.8467 6.19435 38.423 6.04729 37.975 5.92285L37.4397 7.84988C37.8099 7.95271 38.1476 8.0708 38.4543 8.20272L39.2445 6.36546ZM37.9821 5.92484L36.5503 5.51575L36.0008 7.4388L37.4327 7.84789L37.9821 5.92484ZM36.5519 5.5162C35.746 5.28452 35.1776 4.97312 34.7912 4.61993L33.4417 6.09598C34.116 6.71248 34.9869 7.1473 35.9993 7.43834L36.5519 5.5162ZM34.7912 4.61993C34.4884 4.34301 34.321 3.9865 34.321 3.45455H32.321C32.321 4.49078 32.684 5.4032 33.4417 6.09598L34.7912 4.61993ZM34.321 3.45455C34.321 2.99481 34.4412 2.63674 34.6584 2.3378L33.0404 1.1622C32.5531 1.83296 32.321 2.61125 32.321 3.45455H34.321ZM34.6576 2.33892C34.9026 2.00266 35.2373 1.72969 35.6911 1.52577L34.8714 -0.298501C34.1282 0.0354564 33.5083 0.520063 33.0412 1.16108L34.6576 2.33892ZM35.6938 1.52459C36.1513 1.31738 36.6806 1.20455 37.2983 1.20455V-0.795455C36.4311 -0.795455 35.6157 -0.635563 34.8687 -0.297318L35.6938 1.52459ZM37.2983 1.20455C37.9278 1.20455 38.4478 1.31699 38.8796 1.51609L39.717 -0.300178C38.9822 -0.638963 38.1688 -0.795455 37.2983 -0.795455V1.20455ZM38.8845 1.51832C39.331 1.72127 39.6515 1.98289 39.8799 2.29251L41.4894 1.10521C41.036 0.490591 40.4323 0.0249386 39.7121 -0.302413L38.8845 1.51832ZM39.8831 2.29676C40.1031 2.59171 40.2182 2.91807 40.2306 3.30497L42.2296 3.24049C42.2042 2.45315 41.9556 1.73026 41.4862 1.10097L39.8831 2.29676ZM41.2301 2.27273H39.8665V4.27273H41.2301V2.27273ZM43.5241 15.2727H42.5241V16.2727H43.5241V15.2727ZM43.5241 3.27273V2.27273H42.5241V3.27273H43.5241ZM44.8196 3.27273H45.8196V2.27273H44.8196V3.27273ZM44.8196 4.65909H43.8196V5.65909H44.8196V4.65909ZM44.9787 4.65909V5.65909H45.5214L45.8171 5.20408L44.9787 4.65909ZM45.3878 4.07955L44.5863 3.48158L44.5847 3.4837L45.3878 4.07955ZM46.1491 3.44318L46.6399 4.3145L46.6432 4.31264L46.1491 3.44318ZM49.4446 3.71023L49.9928 2.87386L49.4446 3.71023ZM50.7571 5.27273L51.6634 4.85012V4.85012L50.7571 5.27273ZM50.7571 10.0625L51.6634 10.4851L51.6643 10.4832L50.7571 10.0625ZM49.4503 11.6307L50.0011 12.4654L50.005 12.4627L49.4503 11.6307ZM46.1776 11.9034L45.6877 12.7753L45.6953 12.7794L46.1776 11.9034ZM45.3991 11.2614L44.5991 11.8614L44.6037 11.8674L45.3991 11.2614ZM44.9787 10.6591L45.829 10.1327L45.5357 9.65909H44.9787V10.6591ZM44.8651 10.6591V9.65909H43.8651V10.6591H44.8651ZM44.8651 15.2727V16.2727H45.8651V15.2727H44.8651ZM45.1321 9.38068L44.1984 9.73872L44.1993 9.74108L45.1321 9.38068ZM45.9787 10.5568L45.3709 11.351L45.3761 11.3549L45.9787 10.5568ZM48.7457 10.5341L49.3646 11.3196L49.3656 11.3188L48.7457 10.5341ZM49.598 9.32955L48.6634 8.97384L48.662 8.97765L49.598 9.32955ZM49.6037 5.97727L48.667 6.32763L48.6703 6.33625L49.6037 5.97727ZM48.7571 4.80114L48.1431 5.59054L48.152 5.5973L48.7571 4.80114ZM45.9673 4.77841L46.5594 5.58431L46.5647 5.58037L45.9673 4.77841ZM45.1264 5.92614L46.0588 6.28754L46.0598 6.28512L45.1264 5.92614ZM44.5241 15.2727V3.27273H42.5241V15.2727H44.5241ZM43.5241 4.27273H44.8196V2.27273H43.5241V4.27273ZM43.8196 3.27273V4.65909H45.8196V3.27273H43.8196ZM44.8196 5.65909H44.9787V3.65909H44.8196V5.65909ZM45.8171 5.20408C45.8997 5.07709 46.0224 4.90242 46.1909 4.67539L44.5847 3.4837C44.4046 3.72637 44.2547 3.93806 44.1403 4.1141L45.8171 5.20408ZM46.1893 4.67751C46.2646 4.57653 46.4002 4.44949 46.6399 4.31449L45.6584 2.57187C45.239 2.80808 44.867 3.10529 44.5863 3.48158L46.1893 4.67751ZM46.6432 4.31264C46.7704 4.24033 47.0289 4.15909 47.5014 4.15909V2.15909C46.8376 2.15909 46.1945 2.26724 45.6551 2.57373L46.6432 4.31264ZM47.5014 4.15909C48.061 4.15909 48.5143 4.29615 48.8964 4.5466L49.9928 2.87386C49.2537 2.38945 48.4115 2.15909 47.5014 2.15909V4.15909ZM48.8964 4.5466C49.2848 4.80112 49.6061 5.17053 49.8508 5.69533L51.6634 4.85012C51.2793 4.02643 50.7256 3.35418 49.9928 2.87386L48.8964 4.5466ZM49.8508 5.69533C50.0909 6.21019 50.2287 6.85532 50.2287 7.65909H52.2287C52.2287 6.62953 52.0521 5.68375 51.6634 4.85012L49.8508 5.69533ZM50.2287 7.65909C50.2287 8.47158 50.0905 9.12299 49.8499 9.64184L51.6643 10.4832C52.0525 9.64595 52.2287 8.69509 52.2287 7.65909H50.2287ZM49.8508 9.63989C49.605 10.1671 49.2833 10.5402 48.8956 10.7986L50.005 12.4627C50.7309 11.9788 51.2805 11.3064 51.6634 10.4851L49.8508 9.63989ZM48.8995 10.796C48.5209 11.0459 48.074 11.1818 47.5241 11.1818V13.1818C48.4288 13.1818 49.2661 12.9503 50.001 12.4653L48.8995 10.796ZM47.5241 11.1818C47.0604 11.1818 46.797 11.1029 46.6599 11.0274L45.6953 12.7794C46.2323 13.0751 46.8667 13.1818 47.5241 13.1818V11.1818ZM46.6674 11.0316C46.4162 10.8905 46.2735 10.759 46.1946 10.6553L44.6037 11.8674C44.8884 12.241 45.2646 12.5375 45.6878 12.7752L46.6674 11.0316ZM46.1991 10.6614C46.0257 10.4301 45.9053 10.256 45.829 10.1327L44.1284 11.1854C44.2491 11.3804 44.4089 11.6078 44.5991 11.8614L46.1991 10.6614ZM44.9787 9.65909H44.8651V11.6591H44.9787V9.65909ZM43.8651 10.6591V15.2727H45.8651V10.6591H43.8651ZM44.8651 14.2727H43.5241V16.2727H44.8651V14.2727ZM43.8423 7.63636C43.8423 8.39157 43.9529 9.09844 44.1984 9.73872L46.0658 9.02264C45.925 8.65535 45.8423 8.19934 45.8423 7.63636H43.8423ZM44.1993 9.74108C44.4489 10.3871 44.8331 10.9393 45.3709 11.3509L46.5864 9.76269C46.3819 9.60614 46.2017 9.37424 46.0649 9.02028L44.1993 9.74108ZM45.3761 11.3549C45.9471 11.7861 46.6224 11.9773 47.3423 11.9773V9.97727C46.9865 9.97727 46.7527 9.88818 46.5813 9.75878L45.3761 11.3549ZM47.3423 11.9773C48.0867 11.9773 48.7837 11.7773 49.3646 11.3196L48.1269 9.7486C47.9578 9.88182 47.7192 9.97727 47.3423 9.97727V11.9773ZM49.3656 11.3188C49.9032 10.8941 50.2882 10.3355 50.534 9.68144L48.662 8.97765C48.5291 9.33121 48.3459 9.57559 48.1258 9.74941L49.3656 11.3188ZM50.5326 9.68525C50.7748 9.04896 50.8878 8.36185 50.8878 7.63636H48.8878C48.8878 8.1533 48.8076 8.59498 48.6634 8.97384L50.5326 9.68525ZM50.8878 7.63636C50.8878 6.91969 50.7771 6.24232 50.537 5.61829L48.6703 6.33625C48.8091 6.69707 48.8878 7.12576 48.8878 7.63636H50.8878ZM50.5403 5.62693C50.2963 4.97452 49.9081 4.41986 49.3622 4.00497L48.152 5.5973C48.3637 5.75817 48.5399 5.9876 48.6671 6.32761L50.5403 5.62693ZM49.371 4.01178C48.788 3.55828 48.0878 3.36364 47.3423 3.36364V5.36364C47.7332 5.36364 47.9762 5.46065 48.1432 5.59049L49.371 4.01178ZM47.3423 3.36364C46.6213 3.36364 45.9431 3.54951 45.37 3.97645L46.5647 5.58037C46.734 5.45428 46.9724 5.36364 47.3423 5.36364V3.36364ZM45.3753 3.97253C44.8284 4.37429 44.4409 4.9228 44.1931 5.56716L46.0598 6.28512C46.1907 5.94462 46.3638 5.72798 46.5594 5.58429L45.3753 3.97253ZM44.194 5.56474C43.9505 6.19288 43.8423 6.89023 43.8423 7.63636H45.8423C45.8423 7.07947 45.9235 6.63667 46.0588 6.28754L44.194 5.56474ZM54.7571 11.625L54.2309 12.4754L54.2372 12.4792L54.7571 11.625ZM53.3537 10.0568L52.4533 10.4919L52.4562 10.4979L53.3537 10.0568ZM53.3537 5.34091L52.4524 4.90769L52.4514 4.90981L53.3537 5.34091ZM54.7287 3.73864L55.2746 4.57646L55.2759 4.57561L54.7287 3.73864ZM58.1435 3.38636L58.467 2.44013L58.467 2.44013L58.1435 3.38636ZM59.3537 4.125L58.6697 4.85455L58.6738 4.85834L59.3537 4.125ZM60.223 5.46591L61.1554 5.10438V5.10438L60.223 5.46591ZM60.5469 8.09091V9.09091H61.5469V8.09091H60.5469ZM53.8196 8.09091H52.8196V9.09091H53.8196V8.09091ZM53.8196 6.93182V5.93182H52.8196V6.93182H53.8196ZM59.1832 6.93182V7.93182H60.1832V6.93182H59.1832ZM58.8878 5.61364L57.9933 6.06086L57.9969 6.06782L58.8878 5.61364ZM58.0582 4.69886L57.5266 5.54586L57.5307 5.54837L58.0582 4.69886ZM55.4105 4.76136L55.9708 5.58965L55.9726 5.58844L55.4105 4.76136ZM54.5185 5.78409L53.6224 5.34011V5.34011L54.5185 5.78409ZM54.5469 9.58523L53.6509 10.0295L53.6554 10.0384L54.5469 9.58523ZM55.5071 10.625L55.0032 11.4888L55.0092 11.4923L55.5071 10.625ZM57.8878 10.8295L58.2153 11.7744L58.2225 11.7718L57.8878 10.8295ZM58.6321 10.375L59.326 11.0951L59.3327 11.0886L58.6321 10.375ZM59.1151 9.61364L59.3853 8.65085L58.5012 8.40267L58.1787 9.26251L59.1151 9.61364ZM60.4105 9.97727L61.3656 10.2737L61.6702 9.29221L60.6808 9.01448L60.4105 9.97727ZM59.723 11.1364L60.4383 11.8352L60.4423 11.8311L59.723 11.1364ZM58.5298 11.9091L58.8883 12.8427L58.8948 12.8401L58.5298 11.9091ZM56.9332 11.1818C56.2427 11.1818 55.7043 11.0308 55.2771 10.7708L54.2372 12.4792C55.0296 12.9616 55.9419 13.1818 56.9332 13.1818V11.1818ZM55.2833 10.7746C54.8448 10.5033 54.502 10.1261 54.2511 9.6157L52.4562 10.4979C52.8645 11.3284 53.4572 11.9967 54.2309 12.4754L55.2833 10.7746ZM54.2541 9.62179C54.0054 9.107 53.8651 8.4767 53.8651 7.70455H51.8651C51.8651 8.72027 52.0505 9.65815 52.4533 10.4918L54.2541 9.62179ZM53.8651 7.70455C53.8651 6.93274 54.0053 6.29676 54.256 5.77201L52.4514 4.90981C52.0506 5.74869 51.8651 6.68848 51.8651 7.70455H53.8651ZM54.255 5.77413C54.5123 5.23875 54.8538 4.85071 55.2746 4.57646L54.1828 2.90081C53.4294 3.39171 52.8542 4.07186 52.4524 4.90769L54.255 5.77413ZM55.2759 4.57561C55.6857 4.30771 56.18 4.15909 56.7969 4.15909V2.15909C55.8379 2.15909 54.9535 2.39684 54.1814 2.90167L55.2759 4.57561ZM56.7969 4.15909C57.138 4.15909 57.4777 4.21558 57.82 4.33259L58.467 2.44013C57.9228 2.25411 57.3648 2.15909 56.7969 2.15909V4.15909ZM57.82 4.33259C58.1205 4.43534 58.4028 4.60425 58.6698 4.85454L60.0376 3.39546C59.5773 2.96393 59.0528 2.64042 58.467 2.44013L57.82 4.33259ZM58.6738 4.85834C58.9057 5.07332 59.1185 5.38357 59.2906 5.82744L61.1554 5.10438C60.8957 4.43461 60.5289 3.85092 60.0336 3.39166L58.6738 4.85834ZM59.2906 5.82744C59.4488 6.23537 59.5469 6.78996 59.5469 7.52273H61.5469C61.5469 6.62671 61.429 5.81008 61.1554 5.10438L59.2906 5.82744ZM59.5469 7.52273V8.09091H61.5469V7.52273H59.5469ZM60.5469 7.09091H53.8196V9.09091H60.5469V7.09091ZM54.8196 8.09091V6.93182H52.8196V8.09091H54.8196ZM53.8196 7.93182H59.1832V5.93182H53.8196V7.93182ZM60.1832 6.93182C60.1832 6.30306 60.0566 5.7045 59.7787 5.15945L57.9969 6.06782C58.1129 6.2955 58.1832 6.57572 58.1832 6.93182H60.1832ZM59.7822 5.16642C59.508 4.61806 59.106 4.17245 58.5858 3.84936L57.5307 5.54837C57.7301 5.67225 57.8812 5.83648 57.9934 6.06085L59.7822 5.16642ZM58.5899 3.85188C58.0513 3.51384 57.4403 3.36364 56.7969 3.36364V5.36364C57.1231 5.36364 57.3531 5.43692 57.5266 5.54585L58.5899 3.85188ZM56.7969 3.36364C56.0898 3.36364 55.4257 3.54197 54.8484 3.93429L55.9726 5.58844C56.1756 5.45046 56.4358 5.36364 56.7969 5.36364V3.36364ZM54.8502 3.93308C54.3197 4.29196 53.9071 4.76564 53.6224 5.34011L55.4145 6.22807C55.5465 5.96163 55.7286 5.7535 55.9708 5.58965L54.8502 3.93308ZM53.6224 5.34011C53.344 5.90213 53.206 6.50529 53.206 7.13636H55.206C55.206 6.80531 55.2763 6.50696 55.4145 6.22807L53.6224 5.34011ZM53.206 7.13636V7.90909H55.206V7.13636H53.206ZM53.206 7.90909C53.206 8.67935 53.3384 9.39913 53.651 10.0295L55.4428 9.14098C55.3008 8.85465 55.206 8.45702 55.206 7.90909H53.206ZM53.6554 10.0384C53.9666 10.6505 54.4154 11.1459 55.0032 11.4888L56.011 9.76122C55.7806 9.62685 55.5893 9.42906 55.4383 9.13208L53.6554 10.0384ZM55.0092 11.4923C55.5911 11.8263 56.2431 11.9773 56.9332 11.9773V9.97727C56.54 9.97727 56.2413 9.89341 56.005 9.75775L55.0092 11.4923ZM56.9332 11.9773C57.3783 11.9773 57.8096 11.915 58.2153 11.7744L57.5602 9.88471C57.3978 9.94102 57.1927 9.97727 56.9332 9.97727V11.9773ZM58.2225 11.7718C58.6369 11.6246 59.0094 11.4001 59.326 11.0951L57.9382 9.65492C57.8381 9.7514 57.7144 9.82991 57.553 9.88724L58.2225 11.7718ZM59.3327 11.0886C59.6559 10.7712 59.8921 10.3894 60.0514 9.96476L58.1787 9.26251C58.1107 9.44393 58.025 9.56969 57.9315 9.66144L59.3327 11.0886ZM58.8448 10.5764L60.1403 10.9401L60.6808 9.01448L59.3853 8.65085L58.8448 10.5764ZM59.4554 9.68087C59.3658 9.96974 59.2179 10.2199 59.0037 10.4416L60.4423 11.8311C60.8721 11.3861 61.1825 10.8636 61.3656 10.2737L59.4554 9.68087ZM59.0077 10.4375C58.7946 10.6556 58.5203 10.8388 58.1649 10.9781L58.8948 12.8401C59.4864 12.6082 60.0075 12.2762 60.4383 11.8352L59.0077 10.4375ZM58.1714 10.9756C57.8295 11.1068 57.4215 11.1818 56.9332 11.1818V13.1818C57.6268 13.1818 58.2832 13.075 58.8883 12.8426L58.1714 10.9756ZM62.5866 12H61.5866V13H62.5866V12ZM62.5866 3.27273V2.27273H61.5866V3.27273H62.5866ZM63.8821 3.27273H64.8821V2.27273H63.8821V3.27273ZM63.8821 4.59091H62.8821V5.59091H63.8821V4.59091ZM63.973 4.59091V5.59091H64.6703L64.9114 4.93661L63.973 4.59091ZM64.8366 3.53977L64.2943 2.69959V2.69959L64.8366 3.53977ZM66.9503 3.15909H67.9503V2.25411L67.0498 2.16405L66.9503 3.15909ZM66.9503 4.52273L66.7077 5.49287L67.9503 5.8035V4.52273H66.9503ZM66.6378 4.47159L66.4734 5.45798L66.4865 5.46016L66.4996 5.462L66.6378 4.47159ZM64.9957 4.69886L65.4632 5.58291L65.4668 5.58094L64.9957 4.69886ZM64.2116 5.42614L63.3625 4.898L63.3607 4.90087L64.2116 5.42614ZM63.9276 12V13H64.9276V12H63.9276ZM63.5866 12V3.27273H61.5866V12H63.5866ZM62.5866 4.27273H63.8821V2.27273H62.5866V4.27273ZM62.8821 3.27273V4.59091H64.8821V3.27273H62.8821ZM63.8821 5.59091H63.973V3.59091H63.8821V5.59091ZM64.9114 4.93661C64.9896 4.72434 65.1294 4.54104 65.3789 4.37996L64.2943 2.69959C63.7106 3.07638 63.2746 3.59384 63.0347 4.2452L64.9114 4.93661ZM65.3789 4.37996C65.625 4.22111 65.9045 4.13636 66.2457 4.13636V2.13636C65.5416 2.13636 64.8816 2.32055 64.2943 2.69959L65.3789 4.37996ZM66.2457 4.13636C66.3326 4.13636 66.4465 4.13805 66.5894 4.14172L66.6407 2.14237C66.4882 2.13846 66.3558 2.13636 66.2457 2.13636V4.13636ZM66.5894 4.14172C66.7308 4.14534 66.8128 4.15033 66.8508 4.15413L67.0498 2.16405C66.9363 2.1527 66.7948 2.14632 66.6407 2.14237L66.5894 4.14172ZM65.9503 3.15909V4.52273H67.9503V3.15909H65.9503ZM67.1928 3.55258C67.0853 3.5257 66.9239 3.50183 66.776 3.48119L66.4996 5.462C66.577 5.4728 66.6353 5.48153 66.6766 5.48829C66.6972 5.49167 66.7108 5.49409 66.7186 5.49559C66.7286 5.49747 66.7227 5.49661 66.7077 5.49287L67.1928 3.55258ZM66.8022 3.4852C66.5835 3.44875 66.3596 3.43182 66.1321 3.43182V5.43182C66.2607 5.43182 66.3739 5.4414 66.4734 5.45798L66.8022 3.4852ZM66.1321 3.43182C65.564 3.43182 65.02 3.55224 64.5246 3.81679L65.4668 5.58094C65.6382 5.48942 65.8517 5.43182 66.1321 5.43182V3.43182ZM64.5283 3.81483C64.0454 4.07016 63.651 4.43407 63.3625 4.898L65.0608 5.95427C65.1586 5.79699 65.287 5.67605 65.4632 5.5829L64.5283 3.81483ZM63.3607 4.90087C63.0649 5.38003 62.9276 5.91559 62.9276 6.47727H64.9276C64.9276 6.25108 64.9796 6.08588 65.0626 5.95141L63.3607 4.90087ZM62.9276 6.47727V12H64.9276V6.47727H62.9276ZM63.9276 11H62.5866V13H63.9276V11ZM67.7884 12H66.7884V13H67.7884V12ZM67.7884 10.9773L66.9575 10.4207L66.7884 10.6733V10.9773H67.7884ZM74.0611 1.61364L74.8919 2.1702L75.9346 0.613636H74.0611V1.61364ZM67.7202 1.61364H66.7202V2.61364H67.7202V1.61364ZM67.7202 0.363636V-0.636364H66.7202V0.363636H67.7202ZM75.7429 0.363636H76.7429V-0.636364H75.7429V0.363636ZM75.7429 1.38636L76.5737 1.94292L76.7429 1.69036V1.38636H75.7429ZM69.4702 10.75L68.6394 10.1934L67.5966 11.75H69.4702V10.75ZM75.8111 10.75H76.8111V9.75H75.8111V10.75ZM75.8111 12V13H76.8111V12H75.8111ZM68.7884 12V10.9773H66.7884V12H68.7884ZM68.6192 11.5338L74.8919 2.1702L73.2303 1.05708L66.9575 10.4207L68.6192 11.5338ZM74.0611 0.613636H67.7202V2.61364H74.0611V0.613636ZM68.7202 1.61364V0.363636H66.7202V1.61364H68.7202ZM67.7202 1.36364H75.7429V-0.636364H67.7202V1.36364ZM74.7429 0.363636V1.38636H76.7429V0.363636H74.7429ZM74.9121 0.829803L68.6394 10.1934L70.301 11.3066L76.5737 1.94292L74.9121 0.829803ZM69.4702 11.75H75.8111V9.75H69.4702V11.75ZM74.8111 10.75V12H76.8111V10.75H74.8111ZM75.8111 11H67.7884V13H75.8111V11ZM79.4759 11.625L78.9497 12.4754L78.9559 12.4792L79.4759 11.625ZM78.0724 10.0568L77.172 10.4919L77.175 10.4979L78.0724 10.0568ZM78.0724 5.34091L77.1712 4.90769L77.1701 4.90981L78.0724 5.34091ZM79.4474 3.73864L79.9934 4.57646L79.9947 4.57561L79.4474 3.73864ZM82.8622 3.38636L83.1857 2.44013V2.44013L82.8622 3.38636ZM84.0724 4.125L83.3885 4.85455L83.3926 4.85834L84.0724 4.125ZM84.9418 5.46591L85.8741 5.10438V5.10438L84.9418 5.46591ZM85.2656 8.09091V9.09091H86.2656V8.09091H85.2656ZM78.5384 8.09091H77.5384V9.09091H78.5384V8.09091ZM78.5384 6.93182V5.93182H77.5384V6.93182H78.5384ZM83.902 6.93182V7.93182H84.902V6.93182H83.902ZM83.6065 5.61364L82.7121 6.06086L82.7156 6.06782L83.6065 5.61364ZM82.777 4.69886L82.2454 5.54586L82.2494 5.54837L82.777 4.69886ZM80.1293 4.76136L80.6896 5.58965L80.6914 5.58844L80.1293 4.76136ZM79.2372 5.78409L78.3412 5.34011V5.34011L79.2372 5.78409ZM79.2656 9.58523L78.3697 10.0295L78.3742 10.0384L79.2656 9.58523ZM80.2259 10.625L79.722 11.4888L79.728 11.4923L80.2259 10.625ZM82.6065 10.8295L82.9341 11.7744L82.9413 11.7718L82.6065 10.8295ZM83.3509 10.375L84.0448 11.0951L84.0514 11.0886L83.3509 10.375ZM83.8338 9.61364L84.1041 8.65085L83.2199 8.40267L82.8975 9.26251L83.8338 9.61364ZM85.1293 9.97727L86.0843 10.2737L86.3889 9.29221L85.3995 9.01448L85.1293 9.97727ZM84.4418 11.1364L85.1571 11.8352L85.161 11.8311L84.4418 11.1364ZM83.2486 11.9091L83.6071 12.8427L83.6135 12.8401L83.2486 11.9091ZM81.652 11.1818C80.9615 11.1818 80.423 11.0308 79.9958 10.7708L78.9559 12.4792C79.7484 12.9616 80.6607 13.1818 81.652 13.1818V11.1818ZM80.002 10.7746C79.5636 10.5033 79.2208 10.1261 78.9699 9.6157L77.175 10.4979C77.5832 11.3284 78.176 11.9967 78.9497 12.4754L80.002 10.7746ZM78.9729 9.62179C78.7241 9.107 78.5838 8.4767 78.5838 7.70455H76.5838C76.5838 8.72027 76.7692 9.65815 77.172 10.4918L78.9729 9.62179ZM78.5838 7.70455C78.5838 6.93274 78.724 6.29676 78.9747 5.77201L77.1701 4.90981C76.7693 5.74869 76.5838 6.68848 76.5838 7.70455H78.5838ZM78.9737 5.77413C79.2311 5.23875 79.5725 4.85071 79.9934 4.57646L78.9015 2.90081C78.1481 3.39171 77.5729 4.07186 77.1712 4.90769L78.9737 5.77413ZM79.9947 4.57561C80.4044 4.30771 80.8988 4.15909 81.5156 4.15909V2.15909C80.5567 2.15909 79.6723 2.39684 78.9002 2.90167L79.9947 4.57561ZM81.5156 4.15909C81.8568 4.15909 82.1965 4.21558 82.5387 4.33259L83.1857 2.44013C82.6416 2.25411 82.0836 2.15909 81.5156 2.15909V4.15909ZM82.5387 4.33259C82.8392 4.43534 83.1215 4.60425 83.3885 4.85454L84.7564 3.39546C84.2961 2.96393 83.7715 2.64042 83.1857 2.44013L82.5387 4.33259ZM83.3926 4.85834C83.6245 5.07332 83.8373 5.38357 84.0094 5.82744L85.8741 5.10438C85.6144 4.43461 85.2477 3.85092 84.7523 3.39166L83.3926 4.85834ZM84.0094 5.82744C84.1676 6.23537 84.2656 6.78996 84.2656 7.52273H86.2656C86.2656 6.62671 86.1478 5.81008 85.8741 5.10438L84.0094 5.82744ZM84.2656 7.52273V8.09091H86.2656V7.52273H84.2656ZM85.2656 7.09091H78.5384V9.09091H85.2656V7.09091ZM79.5384 8.09091V6.93182H77.5384V8.09091H79.5384ZM78.5384 7.93182H83.902V5.93182H78.5384V7.93182ZM84.902 6.93182C84.902 6.30306 84.7753 5.7045 84.4974 5.15945L82.7156 6.06782C82.8317 6.2955 82.902 6.57572 82.902 6.93182H84.902ZM84.501 5.16642C84.2268 4.61806 83.8248 4.17245 83.3046 3.84936L82.2494 5.54837C82.4489 5.67225 82.5999 5.83648 82.7121 6.06085L84.501 5.16642ZM83.3086 3.85188C82.77 3.51384 82.1591 3.36364 81.5156 3.36364V5.36364C81.8419 5.36364 82.0718 5.43692 82.2454 5.54585L83.3086 3.85188ZM81.5156 3.36364C80.8085 3.36364 80.1444 3.54197 79.5672 3.93429L80.6914 5.58844C80.8944 5.45046 81.1546 5.36364 81.5156 5.36364V3.36364ZM79.569 3.93308C79.0384 4.29196 78.6258 4.76564 78.3412 5.34011L80.1333 6.22807C80.2653 5.96163 80.4474 5.7535 80.6896 5.58965L79.569 3.93308ZM78.3412 5.34011C78.0627 5.90213 77.9247 6.50529 77.9247 7.13636H79.9247C79.9247 6.80531 79.9951 6.50696 80.1333 6.22807L78.3412 5.34011ZM77.9247 7.13636V7.90909H79.9247V7.13636H77.9247ZM77.9247 7.90909C77.9247 8.67935 78.0572 9.39913 78.3697 10.0295L80.1615 9.14098C80.0195 8.85465 79.9247 8.45702 79.9247 7.90909H77.9247ZM78.3742 10.0384C78.6853 10.6505 79.1341 11.1459 79.722 11.4888L80.7297 9.76122C80.4994 9.62685 80.308 9.42906 80.1571 9.13208L78.3742 10.0384ZM79.728 11.4923C80.3099 11.8263 80.9619 11.9773 81.652 11.9773V9.97727C81.2588 9.97727 80.96 9.89341 80.7237 9.75775L79.728 11.4923ZM81.652 11.9773C82.0971 11.9773 82.5283 11.915 82.9341 11.7744L82.279 9.88471C82.1166 9.94102 81.9115 9.97727 81.652 9.97727V11.9773ZM82.9413 11.7718C83.3557 11.6246 83.7282 11.4001 84.0447 11.0951L82.657 9.65492C82.5568 9.7514 82.4331 9.82991 82.2718 9.88724L82.9413 11.7718ZM84.0514 11.0886C84.3747 10.7712 84.6109 10.3894 84.7701 9.96476L82.8975 9.26251C82.8294 9.44393 82.7437 9.56969 82.6503 9.66144L84.0514 11.0886ZM83.5636 10.5764L84.859 10.9401L85.3995 9.01448L84.1041 8.65085L83.5636 10.5764ZM84.1742 9.68087C84.0845 9.96974 83.9366 10.2199 83.7225 10.4416L85.161 11.8311C85.5908 11.3861 85.9012 10.8636 86.0843 10.2737L84.1742 9.68087ZM83.7265 10.4375C83.5134 10.6556 83.239 10.8388 82.8836 10.9781L83.6135 12.8401C84.2051 12.6082 84.7262 12.2762 85.157 11.8352L83.7265 10.4375ZM82.8901 10.9756C82.5482 11.1068 82.1402 11.1818 81.652 11.1818V13.1818C82.3456 13.1818 83.002 13.075 83.6071 12.8426L82.8901 10.9756ZM88.6463 0.363636H89.6463V-0.636364H88.6463V0.363636ZM88.6463 12V13H89.6463V12H88.6463ZM87.3054 12H86.3054V13H87.3054V12ZM87.3054 0.363636V-0.636364H86.3054V0.363636H87.3054ZM87.6463 0.363636V12H89.6463V0.363636H87.6463ZM88.6463 11H87.3054V13H88.6463V11ZM88.3054 12V0.363636H86.3054V12H88.3054ZM87.3054 1.36364H88.6463V-0.636364H87.3054V1.36364Z" fill="black" mask="url(#path-1-outside-1_12_82)"/>
</g>
<defs>
<filter id="filter0_d_12_82" x="0.409119" y="0.204529" width="92.2372" height="23.0682" filterUnits="userSpaceOnUse" color-interpolation-filters="sRGB">
<feFlood flood-opacity="0" result="BackgroundImageFix"/>
<feColorMatrix in="SourceAlpha" type="matrix" values="0 0 0 0 0 0 0 0 0 0 0 0 0 0 0 0 0 0 127 0" result="hardAlpha"/>
<feOffset dy="4"/>
<feGaussianBlur stdDeviation="2"/>
<feComposite in2="hardAlpha" operator="out"/>
<feColorMatrix type="matrix" values="0 0 0 0 0 0 0 0 0 0 0 0 0 0 0 0 0 0 0.25 0"/>
<feBlend mode="normal" in2="BackgroundImageFix" result="effect1_dropShadow_12_82"/>
<feBlend mode="normal" in="SourceGraphic" in2="effect1_dropShadow_12_82" result="shape"/>
</filter>
</defs>
</svg>
